<mxfile host="65bd71144e">
    <diagram id="aNUrwyB2VvVOVove9UKh" name="Page-1">
        <mxGraphModel dx="930" dy="1139" grid="1" gridSize="10" guides="1" tooltips="1" connect="1" arrows="1" fold="1" page="1" pageScale="1" pageWidth="1100" pageHeight="850" math="0" shadow="0">
            <root>
                <mxCell id="0"/>
                <mxCell id="1" parent="0"/>
                <mxCell id="2" value="" style="rounded=0;whiteSpace=wrap;html=1;" parent="1" vertex="1">
                    <mxGeometry x="60" y="55" width="970" height="745" as="geometry"/>
                </mxCell>
                <mxCell id="3" value="" style="rounded=0;whiteSpace=wrap;html=1;fontSize=22;fontFamily=Helvetica;" parent="1" vertex="1">
                    <mxGeometry x="120" y="122" width="140" height="168" as="geometry"/>
                </mxCell>
                <mxCell id="5" value="성인" style="text;html=1;strokeColor=none;fillColor=none;align=center;verticalAlign=middle;whiteSpace=wrap;rounded=0;fontFamily=Helvetica;fontSize=22;" parent="1" vertex="1">
                    <mxGeometry x="120" y="302" width="140" height="30" as="geometry"/>
                </mxCell>
                <mxCell id="6" value="1500" style="text;html=1;strokeColor=none;fillColor=none;align=center;verticalAlign=middle;whiteSpace=wrap;rounded=0;fontFamily=Helvetica;fontSize=22;" parent="1" vertex="1">
                    <mxGeometry x="120" y="332" width="140" height="30" as="geometry"/>
                </mxCell>
                <mxCell id="7" value="" style="rounded=0;whiteSpace=wrap;html=1;fontSize=22;fontFamily=Helvetica;" parent="1" vertex="1">
                    <mxGeometry x="300" y="122" width="140" height="168" as="geometry"/>
                </mxCell>
                <mxCell id="8" value="학생" style="text;html=1;strokeColor=none;fillColor=none;align=center;verticalAlign=middle;whiteSpace=wrap;rounded=0;fontFamily=Helvetica;fontSize=22;" parent="1" vertex="1">
                    <mxGeometry x="300" y="302" width="140" height="30" as="geometry"/>
                </mxCell>
                <mxCell id="9" value="1200" style="text;html=1;strokeColor=none;fillColor=none;align=center;verticalAlign=middle;whiteSpace=wrap;rounded=0;fontFamily=Helvetica;fontSize=22;" parent="1" vertex="1">
                    <mxGeometry x="300" y="332" width="140" height="30" as="geometry"/>
                </mxCell>
                <mxCell id="10" value="" style="rounded=0;whiteSpace=wrap;html=1;fontFamily=Helvetica;fontSize=22;" parent="1" vertex="1">
                    <mxGeometry x="60" y="450" width="970" height="350" as="geometry"/>
                </mxCell>
                <mxCell id="12" value="평일 - 성인" style="text;html=1;strokeColor=none;fillColor=none;align=left;verticalAlign=middle;whiteSpace=wrap;rounded=0;fontFamily=Helvetica;fontSize=22;" parent="1" vertex="1">
                    <mxGeometry x="110" y="534" width="320" height="30" as="geometry"/>
                </mxCell>
                <mxCell id="13" value="1" style="text;html=1;strokeColor=none;fillColor=none;align=left;verticalAlign=middle;whiteSpace=wrap;rounded=0;fontFamily=Helvetica;fontSize=22;" parent="1" vertex="1">
                    <mxGeometry x="600" y="534" width="30" height="30" as="geometry"/>
                </mxCell>
                <mxCell id="14" value="1500" style="text;html=1;strokeColor=none;fillColor=none;align=left;verticalAlign=middle;whiteSpace=wrap;rounded=0;fontFamily=Helvetica;fontSize=22;" parent="1" vertex="1">
                    <mxGeometry x="450" y="534" width="30" height="30" as="geometry"/>
                </mxCell>
                <mxCell id="15" value="항목 이름" style="text;html=1;strokeColor=none;fillColor=none;align=left;verticalAlign=middle;whiteSpace=wrap;rounded=0;fontFamily=Helvetica;fontSize=22;" parent="1" vertex="1">
                    <mxGeometry x="110" y="490" width="320" height="30" as="geometry"/>
                </mxCell>
                <mxCell id="16" value="수량" style="text;html=1;strokeColor=none;fillColor=none;align=left;verticalAlign=middle;whiteSpace=wrap;rounded=0;fontFamily=Helvetica;fontSize=22;" parent="1" vertex="1">
                    <mxGeometry x="600" y="490" width="100" height="30" as="geometry"/>
                </mxCell>
                <mxCell id="17" value="금액" style="text;html=1;strokeColor=none;fillColor=none;align=left;verticalAlign=middle;whiteSpace=wrap;rounded=0;fontFamily=Helvetica;fontSize=22;" parent="1" vertex="1">
                    <mxGeometry x="450" y="490" width="80" height="30" as="geometry"/>
                </mxCell>
                <mxCell id="18" value="평일 - 성인" style="text;html=1;strokeColor=none;fillColor=none;align=left;verticalAlign=middle;whiteSpace=wrap;rounded=0;fontFamily=Helvetica;fontSize=22;" parent="1" vertex="1">
                    <mxGeometry x="110" y="580" width="320" height="30" as="geometry"/>
                </mxCell>
                <mxCell id="19" value="2" style="text;html=1;strokeColor=none;fillColor=none;align=left;verticalAlign=middle;whiteSpace=wrap;rounded=0;fontFamily=Helvetica;fontSize=22;" parent="1" vertex="1">
                    <mxGeometry x="600" y="580" width="30" height="30" as="geometry"/>
                </mxCell>
                <mxCell id="20" value="1200" style="text;html=1;strokeColor=none;fillColor=none;align=left;verticalAlign=middle;whiteSpace=wrap;rounded=0;fontFamily=Helvetica;fontSize=22;" parent="1" vertex="1">
                    <mxGeometry x="450" y="580" width="30" height="30" as="geometry"/>
                </mxCell>
                <mxCell id="24" value="합계" style="text;html=1;strokeColor=none;fillColor=none;align=left;verticalAlign=middle;whiteSpace=wrap;rounded=0;fontFamily=Helvetica;fontSize=22;" parent="1" vertex="1">
                    <mxGeometry x="710" y="490" width="100" height="30" as="geometry"/>
                </mxCell>
                <mxCell id="25" value="1500" style="text;html=1;strokeColor=none;fillColor=none;align=left;verticalAlign=middle;whiteSpace=wrap;rounded=0;fontFamily=Helvetica;fontSize=22;" parent="1" vertex="1">
                    <mxGeometry x="710" y="534" width="30" height="30" as="geometry"/>
                </mxCell>
                <mxCell id="26" value="2400" style="text;html=1;strokeColor=none;fillColor=none;align=left;verticalAlign=middle;whiteSpace=wrap;rounded=0;fontFamily=Helvetica;fontSize=22;" parent="1" vertex="1">
                    <mxGeometry x="710" y="580" width="30" height="30" as="geometry"/>
                </mxCell>
                <mxCell id="27" value="결제하기" style="rounded=1;whiteSpace=wrap;html=1;fontFamily=Helvetica;fontSize=22;" parent="1" vertex="1">
                    <mxGeometry x="875" y="700" width="120" height="60" as="geometry"/>
                </mxCell>
                <mxCell id="28" value="3900" style="text;html=1;strokeColor=none;fillColor=none;align=left;verticalAlign=middle;whiteSpace=wrap;rounded=0;fontFamily=Helvetica;fontSize=22;" parent="1" vertex="1">
                    <mxGeometry x="710" y="715" width="30" height="30" as="geometry"/>
                </mxCell>
                <mxCell id="29" value="총 금액" style="text;html=1;strokeColor=none;fillColor=none;align=left;verticalAlign=middle;whiteSpace=wrap;rounded=0;fontFamily=Helvetica;fontSize=22;" parent="1" vertex="1">
                    <mxGeometry x="110" y="715" width="320" height="30" as="geometry"/>
                </mxCell>
                <mxCell id="30" value="비우기" style="rounded=1;whiteSpace=wrap;html=1;fontFamily=Helvetica;fontSize=22;" parent="1" vertex="1">
                    <mxGeometry x="875" y="490" width="120" height="60" as="geometry"/>
                </mxCell>
                <mxCell id="31" value="" style="rounded=0;whiteSpace=wrap;html=1;fontFamily=Helvetica;fontSize=22;" parent="1" vertex="1">
                    <mxGeometry x="840" y="55" width="190" height="395" as="geometry"/>
                </mxCell>
                <mxCell id="33" value="운영시간&lt;br&gt;06:00 ~ 21:00&lt;br&gt;&lt;br&gt;문의 전화&lt;br&gt;031-xxx-xxxx" style="text;html=1;strokeColor=none;fillColor=none;align=left;verticalAlign=middle;whiteSpace=wrap;rounded=0;fontFamily=Helvetica;fontSize=22;" parent="1" vertex="1">
                    <mxGeometry x="860" y="82.5" width="150" height="340" as="geometry"/>
                </mxCell>
            </root>
        </mxGraphModel>
    </diagram>
</mxfile>